<svg width="24" height="17" viewBox="0 0 24 17" fill="none" xmlns="http://www.w3.org/2000/svg">
<g clip-path="url(#clip0_677_5623)">
<path fill-rule="evenodd" clip-rule="evenodd" d="M9.90234 7.54306L9.87109 7.40329C9.4043 7.53689 8.93555 7.58006 8.46289 7.56361C7.92383 7.54511 7.38477 7.44851 6.8457 7.31902C6.58203 7.25531 6.35156 7.18748 6.13281 7.12171C5.64062 6.97578 5.20703 6.84834 4.60938 6.84218C4.60352 6.84218 4.59961 6.84218 4.59375 6.84218L2.43164 6.64897L2.00586 7.29436C3.24805 7.79998 4.79102 8.15351 6.27539 8.29121C7.67578 8.4207 9.01758 8.3611 9.99609 8.0569L9.90234 7.54306ZM20.4395 9.508C22.4062 9.508 24 11.1852 24 13.2549C24 15.3247 22.4062 17.0019 20.4395 17.0019C18.4727 17.0019 16.8789 15.3247 16.8789 13.2549C16.8789 12.0053 17.459 10.8995 18.3516 10.2192L17.3184 8.08157L15.4219 14.0833H14.584C14.584 14.1079 14.584 14.1326 14.5801 14.1552C14.5098 14.5622 14.3906 14.891 14.2227 15.1377C14.0352 15.4131 13.791 15.5898 13.4883 15.6659C13.1191 15.7584 12.084 15.5837 11.4082 15.4706C11.2285 15.4398 11.0742 15.4151 10.9746 15.4008L8.74609 15.0863L8.73633 15.1233C8.68359 15.3453 8.47852 15.4912 8.25977 15.4542L6.87695 15.2158C6.72852 15.4624 6.55273 15.6885 6.35547 15.892C5.70117 16.5662 4.79492 16.9834 3.79688 16.9834C2.79883 16.9834 1.89453 16.5662 1.23828 15.892C0.582031 15.2158 0.175781 14.2826 0.175781 13.2529C0.175781 12.2231 0.582031 11.29 1.23828 10.6138C1.89258 9.93963 2.79883 9.52238 3.79688 9.52238C4.79492 9.52238 5.69922 9.93963 6.35547 10.6138C7.01172 11.29 7.41797 12.2231 7.41797 13.2529C7.41797 13.368 7.41211 13.481 7.40234 13.592L8.60742 13.9435C8.81445 14.0031 8.94336 14.2189 8.91211 14.4368L11.0547 14.7389C11.166 14.7554 11.3223 14.78 11.5059 14.8109C12.1309 14.9157 13.0898 15.076 13.3418 15.0143C13.4902 14.9773 13.6113 14.8869 13.707 14.7471C13.8164 14.5868 13.8965 14.3628 13.9492 14.0791H8.86133C7.31445 8.53375 3.44727 7.77326 1.22852 9.75875L0 9.74231C0.367188 8.80506 1.23047 8.19667 2.2793 7.86986C2.04688 7.78559 1.82422 7.69721 1.60938 7.60267C1.5918 7.5965 1.57617 7.58828 1.56055 7.57595C1.46484 7.50606 1.44141 7.36835 1.50781 7.26764L2.15039 6.29339C2.19141 6.22762 2.26562 6.18651 2.3457 6.19268L4.62891 6.39616C5.2793 6.40644 5.73242 6.54004 6.24805 6.69213C6.46289 6.75585 6.68945 6.82162 6.94141 6.88328C7.45703 7.00866 7.9707 7.10115 8.47656 7.1176C8.96289 7.13404 9.44727 7.08265 9.92578 6.92028C10.082 6.77435 10.2402 6.63458 10.4043 6.50098C10.5742 6.36122 10.7539 6.22556 10.9453 6.09196C11.4551 5.73433 11.9785 5.44863 12.5313 5.25337C13.0879 5.05811 13.6719 4.95534 14.3027 4.96768C14.6914 4.9759 15.0684 5.03756 15.4258 5.16705C15.6719 5.25748 15.9102 5.37875 16.1367 5.53496C16.1387 5.49385 16.1523 5.45274 16.1758 5.41986L15.0488 4.52988H13.2871C13.082 4.52988 12.918 4.35517 12.918 4.14141C12.918 3.9256 13.084 3.75295 13.2871 3.75295H14.9102V2.2032H14.9121V2.19498C14.9141 2.14359 14.9121 2.09632 14.9062 2.05521C14.9023 2.02027 14.8945 1.98738 14.8848 1.9545C14.8535 1.85378 14.7871 1.81062 14.6973 1.75307C14.6914 1.75101 14.6875 1.7469 14.6816 1.74485C14.6719 1.73868 14.6621 1.73252 14.6387 1.71813L14.623 1.98533C14.6133 2.14359 14.4844 2.26486 14.332 2.25458C14.1816 2.2443 14.0664 2.10865 14.0762 1.94833L14.1777 0.264979C14.1875 0.106715 14.3164 -0.0145518 14.4688 -0.00427489C14.6191 0.00600198 14.7344 0.141657 14.7246 0.301976L14.6777 1.06863L14.8828 1.20017L14.959 1.24745C14.9648 1.2495 14.9688 1.25361 14.9727 1.25772C15.168 1.37694 15.3105 1.47148 15.4062 1.77773C15.4258 1.8394 15.4395 1.90722 15.4492 1.98327C15.457 2.0511 15.4609 2.12509 15.459 2.2032V3.88655L16.1738 4.44972L16.2383 4.37162L16.0703 4.24418C15.9766 4.17225 15.9551 4.03248 16.0234 3.93382C16.0293 3.9256 16.0352 3.91738 16.041 3.91121L16.6992 3.10345C16.7754 3.01096 16.9082 2.99863 16.9961 3.07879L17 3.0829L17.6152 3.61524C17.7051 3.69334 17.7188 3.83311 17.6445 3.92766L17.6406 3.93382L16.998 4.70459C16.9727 4.73542 16.9414 4.75597 16.9082 4.7683L16.6797 4.85052L16.8887 5.01495L16.8945 5.02111L16.957 4.98823C17.0605 4.93479 17.1875 4.98001 17.2402 5.08894L17.2441 5.09511L17.5449 5.69939C17.6895 5.3582 18.0117 5.12388 18.293 4.91835C18.3516 4.87518 18.4102 4.83202 18.4609 4.79297C18.6816 4.62032 18.8867 4.50933 19.0723 4.46C19.2773 4.4045 19.4629 4.42095 19.6211 4.50316C19.7793 4.58743 19.9023 4.73336 19.9824 4.94096C20.0547 5.12799 20.0938 5.36436 20.0938 5.648V6.46604C20.0938 6.47632 20.0938 6.48865 20.0918 6.49893C20.0703 6.86067 19.9922 7.12171 19.8691 7.29847C19.793 7.4074 19.7031 7.48345 19.5996 7.53278C19.4961 7.58211 19.3848 7.60061 19.2676 7.59444C19.0156 7.58006 18.7324 7.44235 18.4395 7.2142L18.2148 7.03949L19.541 9.62515C19.8262 9.5491 20.1289 9.508 20.4395 9.508ZM18.7129 9.97662C18.8477 9.89646 18.9883 9.82658 19.1348 9.76697L16.9824 5.52879C16.9766 5.53907 16.9707 5.54935 16.9629 5.55962C16.875 5.61717 16.7656 5.68911 16.6602 5.71378L18.7129 9.97662ZM2.50781 12.1718L3.39062 12.4287C3.45508 12.3958 3.52148 12.3711 3.59375 12.3547L3.64844 10.8748H3.63867L3.62109 10.8769C3.60547 10.8789 3.58984 10.8789 3.57422 10.881H3.56836H3.56641C3.54883 10.883 3.5332 10.8851 3.51562 10.8872L3.49805 10.8892C3.48633 10.8913 3.47461 10.8933 3.46484 10.8933L3.44531 10.8974C3.43359 10.8995 3.42187 10.9015 3.41211 10.9036L3.39453 10.9077C3.38086 10.9098 3.36719 10.9139 3.35352 10.9159L3.34375 10.918C3.32617 10.9221 3.31055 10.9262 3.29297 10.9303L3.27734 10.9344C3.26563 10.9365 3.25391 10.9406 3.24219 10.9426L3.22266 10.9488L3.18945 10.9591L3.17188 10.9632C3.1582 10.9673 3.14453 10.9714 3.13281 10.9755L3.12305 10.9776C3.10742 10.9838 3.0918 10.9879 3.07617 10.994L3.05859 11.0002C3.04883 11.0043 3.03711 11.0084 3.02734 11.0125L3.00781 11.0208L2.97852 11.0331L2.95898 11.0413C2.94922 11.0454 2.93945 11.0495 2.92969 11.0536L2.91211 11.0619C2.89844 11.068 2.88281 11.0742 2.86914 11.0824L2.85156 11.0906L2.82422 11.105L2.80273 11.1153L2.7793 11.1276L2.75781 11.14L2.73438 11.1482L2.71484 11.1585H2.71289C2.69922 11.1667 2.6875 11.1729 2.67383 11.1811L2.65039 11.1955L2.63281 11.2057C2.625 11.2098 2.61719 11.216 2.60938 11.2222L2.5918 11.2345L2.56836 11.251L2.55078 11.2633L2.52539 11.2797L2.51953 11.2838C2.5 11.2982 2.48047 11.3126 2.46094 11.327L2.44922 11.3352L2.42383 11.3558L2.41016 11.3681C2.40234 11.3743 2.39453 11.3804 2.38672 11.3887L2.375 11.3989C2.3457 11.4236 2.31641 11.4503 2.28711 11.477L2.28125 11.4812C2.27344 11.4894 2.26367 11.4976 2.25586 11.5058L2.24609 11.5161C2.23828 11.5243 2.23047 11.5325 2.2207 11.5408L2.21094 11.551C2.20312 11.5593 2.19531 11.5675 2.1875 11.5757L2.18359 11.5798C2.1543 11.6106 2.12695 11.6415 2.10156 11.6723L2.0957 11.6785C2.08789 11.6887 2.08008 11.699 2.07031 11.7093L2.06836 11.7155C2.03906 11.7504 2.01172 11.7874 1.98438 11.8265L2.50781 12.1718ZM4.89453 12.8665L6.06641 13.2077C6.06055 12.8932 5.99609 12.5911 5.88477 12.3177L4.89453 12.8665ZM5.38477 14.9609L3.9668 14.7163L3.94531 15.6371L3.96875 15.6351H3.97852C3.99609 15.633 4.01172 15.633 4.0293 15.631L4.04102 15.6289C4.05664 15.6268 4.07031 15.6248 4.08594 15.6227H4.09375C4.10938 15.6207 4.125 15.6186 4.14062 15.6166L4.15625 15.6145C4.17188 15.6125 4.1875 15.6083 4.20508 15.6063H4.20703C4.22266 15.6042 4.23828 15.6001 4.25391 15.596L4.26562 15.594C4.28125 15.5898 4.29688 15.5878 4.3125 15.5837L4.32031 15.5816C4.33398 15.5775 4.34766 15.5755 4.36133 15.5714L4.37305 15.5672C4.38867 15.5631 4.4043 15.559 4.41797 15.5549L4.42969 15.5508C4.44336 15.5467 4.45898 15.5426 4.47266 15.5364L4.47656 15.5344H4.47852C4.49219 15.5302 4.50781 15.5241 4.52148 15.52L4.53711 15.5138C4.55078 15.5097 4.56445 15.5035 4.57812 15.4974L4.58984 15.4932C4.60156 15.4891 4.61133 15.485 4.62305 15.4789L4.63867 15.4727C4.65234 15.4665 4.66406 15.4624 4.67773 15.4562L4.69531 15.448L4.72266 15.4357L4.73828 15.4275C4.75 15.4213 4.76172 15.4151 4.77344 15.409L4.79492 15.3987L4.81836 15.3864C4.82812 15.3802 4.83789 15.3761 4.84766 15.3699L4.86914 15.3576L4.89062 15.3453C4.90039 15.3391 4.91016 15.335 4.91992 15.3288C4.92773 15.3247 4.93555 15.3185 4.94531 15.3144L4.96484 15.3021L4.98633 15.2877C4.99609 15.2815 5.00586 15.2754 5.01562 15.2692L5.03906 15.2528L5.05273 15.2445C5.06641 15.2343 5.08008 15.226 5.0918 15.2158L5.09961 15.2096L5.12305 15.1911L5.13281 15.1849C5.14844 15.1726 5.16211 15.1623 5.17773 15.15L5.18359 15.1438C5.19141 15.1377 5.19922 15.1294 5.20898 15.1233L5.21289 15.1212C5.22852 15.1089 5.24414 15.0945 5.25977 15.0822L5.26953 15.0739C5.29492 15.0513 5.31836 15.0287 5.3418 15.0061C5.35547 14.9917 5.36914 14.9773 5.38477 14.9609ZM3.54688 14.6444L2.20312 14.4121L1.91211 14.5786L1.91406 14.5827C1.91992 14.5909 1.92578 14.5992 1.93164 14.6094L1.94336 14.6279L1.96094 14.6526L1.97266 14.6711C1.97852 14.6793 1.98437 14.6875 1.99023 14.6958L2.00195 14.7122L2.01953 14.7369L2.0332 14.7533C2.03906 14.7615 2.04492 14.7698 2.05273 14.778C2.05859 14.7841 2.0625 14.7903 2.06836 14.7985C2.07422 14.8047 2.07812 14.8109 2.08398 14.8191C2.09375 14.8314 2.10547 14.8437 2.11523 14.8561L2.13477 14.8787L2.15039 14.8951C2.15625 14.9013 2.16211 14.9075 2.16797 14.9157L2.18555 14.9362L2.20312 14.9527L2.22266 14.9732L2.24023 14.9917L2.25781 15.0102L2.27734 15.0287L2.29492 15.0452L2.31445 15.0616L2.33594 15.0801C2.3418 15.0863 2.34766 15.0904 2.35352 15.0966C2.36523 15.1068 2.37891 15.1171 2.39062 15.1274L2.40625 15.1397C2.41406 15.1459 2.42188 15.1521 2.43164 15.1603L2.45117 15.1767L2.4707 15.1932L2.49219 15.2096L2.51367 15.226L2.53516 15.2425L2.55664 15.2569L2.57812 15.2713C2.58594 15.2774 2.59375 15.2815 2.60156 15.2877L2.62109 15.3C2.63086 15.3062 2.64062 15.3124 2.65039 15.3185L2.66602 15.3288C2.68164 15.337 2.69531 15.3473 2.71094 15.3555L2.72656 15.3638C2.73633 15.3699 2.74609 15.3761 2.75781 15.3802L2.77734 15.3905L2.80469 15.4049L2.82422 15.4151L2.85156 15.4295L2.87305 15.4398C2.88281 15.4439 2.89062 15.448 2.90039 15.4521L2.91992 15.4604C2.92969 15.4645 2.94141 15.4686 2.95117 15.4747L2.96875 15.483C2.98242 15.4891 2.99805 15.4953 3.01172 15.4994L3.01758 15.5015H3.01953C3.03516 15.5076 3.05078 15.5138 3.06836 15.52L3.08398 15.5261C3.0957 15.5302 3.10547 15.5344 3.11719 15.5385L3.13477 15.5446C3.14648 15.5487 3.1582 15.5508 3.16797 15.5549L3.18555 15.5611L3.2168 15.5693L3.23828 15.5755C3.25 15.5775 3.26172 15.5816 3.27148 15.5837L3.28906 15.5878C3.30078 15.5898 3.3125 15.594 3.32617 15.596L3.34375 15.6001C3.35938 15.6042 3.37305 15.6063 3.38867 15.6083L3.39453 15.6104C3.41211 15.6145 3.42969 15.6166 3.44531 15.6186L3.4668 15.6227C3.47656 15.6248 3.48828 15.6268 3.49805 15.6268L3.51953 15.6289L3.54688 14.6444ZM2.14648 12.5273L1.64062 12.5171L1.19141 12.5088L0.990234 13.2981L1.77344 13.8901L3.67969 14.2189L3.97852 14.2703L5.33984 14.5046L5.69531 14.5663L7.09375 14.8068L8.29492 15.0143C8.35547 14.9075 8.45312 14.482 8.49805 14.3833L8.5 14.3751L6.9707 13.9312L6.03516 13.6599L3.01172 12.7822L2.33594 12.5849L2.14648 12.5273ZM18.5684 5.34381C18.3164 5.52879 18.0215 5.74255 17.9668 5.98303C17.9414 6.09402 17.9355 6.15157 17.9512 6.18035C17.9688 6.21734 18.0312 6.26667 18.127 6.34067L18.7246 6.80312C18.9434 6.97166 19.1406 7.07443 19.291 7.08471C19.332 7.08677 19.3672 7.08265 19.3965 7.06827C19.4238 7.05594 19.4492 7.03127 19.4727 6.99838C19.541 6.89973 19.5879 6.72913 19.6016 6.47221V6.47015V5.65211C19.6016 5.43219 19.5762 5.26159 19.5293 5.14033C19.4961 5.054 19.4512 4.99645 19.4004 4.96973C19.3496 4.94301 19.2793 4.94096 19.1914 4.96356C19.0664 4.99645 18.918 5.07867 18.75 5.21021C18.6934 5.25337 18.6328 5.29654 18.5684 5.34381ZM16.125 6.57703L16.1035 6.06113C15.8496 5.84738 15.5762 5.69322 15.2871 5.59045C14.9687 5.47535 14.6367 5.41986 14.293 5.41369C13.7129 5.40136 13.1738 5.49591 12.6621 5.67678C12.1465 5.85765 11.6562 6.12691 11.1777 6.46399C11.0039 6.58525 10.832 6.7168 10.6621 6.85656C10.5254 6.96755 10.3945 7.0806 10.2695 7.19776L10.3125 7.43207L10.4395 7.99524L15.2754 8.01374C15.2812 8.01374 15.2891 8.01374 15.2949 8.01374C15.4238 8.02607 15.5352 8.01785 15.6309 7.99113C15.7168 7.96441 15.791 7.92125 15.8516 7.8637C16.1641 7.56361 16.1445 7.04977 16.127 6.6017L16.125 6.57703ZM8.9375 9.49361L10.7949 9.46689C10.9297 9.46483 11.0566 9.5861 11.041 9.72587L10.9023 10.9858C10.8867 11.1276 10.791 11.2448 10.6562 11.2448H9.48242C9.34766 11.2448 9.29297 11.1153 9.23633 10.9858L8.68945 9.75259C8.63281 9.6231 8.80078 9.49566 8.9375 9.49361ZM13.293 9.3374H14.9727C15.1074 9.3374 15.25 9.45867 15.2188 9.59638L14.8633 11.1872C14.832 11.3249 14.752 11.4462 14.6172 11.4462H13.4434C13.3086 11.4462 13.2109 11.3291 13.1973 11.1872L13.0449 9.59638C13.0332 9.45456 13.1582 9.3374 13.293 9.3374ZM5.68359 11.9272C5.32422 11.364 4.74219 10.9714 4.07031 10.8872L4.01758 12.365C4.17578 12.4081 4.31641 12.4945 4.42773 12.6116L4.43555 12.6198L5.68359 11.9272ZM2.33984 15.0822C2.3457 15.0883 2.35156 15.0924 2.35742 15.0986L2.33984 15.0822ZM20.334 12.3341L20.3887 10.8337C19.6797 10.8502 19.0508 11.2037 18.6387 11.7484L19.8984 12.5828C20.0156 12.4595 20.166 12.3732 20.334 12.3341ZM20.8086 10.8625L20.7559 12.3424C20.9121 12.3855 21.0547 12.4718 21.166 12.589L21.1738 12.5972L22.3691 11.9333C22.0234 11.3743 21.4629 10.9735 20.8086 10.8625ZM22.5664 12.328L21.3906 12.9816C21.416 13.07 21.4316 13.1645 21.4316 13.2611C21.4316 13.3474 21.4219 13.4297 21.4004 13.5078L22.5332 14.258C22.666 13.9517 22.7402 13.6105 22.7402 13.2529C22.7402 12.9261 22.6797 12.6137 22.5664 12.328ZM22.3223 14.6444L21.1973 13.8983C21.1875 13.9106 21.1758 13.9209 21.166 13.9332C21.0449 14.0607 20.8926 14.1511 20.7207 14.1901L20.6855 15.6597C21.3613 15.5857 21.9512 15.2014 22.3223 14.6444ZM20.2637 15.6659L20.2988 14.1799C20.1426 14.1367 20.002 14.0504 19.8906 13.9332C19.875 13.9147 19.8574 13.8983 19.8438 13.8798L18.5449 14.6238C18.9258 15.2096 19.5488 15.6104 20.2637 15.6659ZM18.3379 14.2354L19.6504 13.4831C19.6348 13.4112 19.625 13.3372 19.625 13.2611C19.625 13.1542 19.6426 13.0515 19.6719 12.9569L18.4062 12.1183C18.2344 12.4575 18.1387 12.8418 18.1387 13.2529C18.1406 13.6023 18.2109 13.9353 18.3379 14.2354ZM20.8906 12.8788C20.7988 12.7822 20.6699 12.7226 20.5273 12.7226C20.3848 12.7226 20.2578 12.7822 20.1641 12.8809C20.1406 12.9055 20.1191 12.9323 20.1016 12.961C20.0996 12.9651 20.0977 12.9692 20.0938 12.9734C20.0918 12.9775 20.0879 12.9816 20.0859 12.9857C20.041 13.0658 20.0156 13.1604 20.0156 13.2591C20.0156 13.4091 20.0723 13.5427 20.166 13.6414C20.2578 13.738 20.3867 13.7996 20.5293 13.7996C20.6699 13.7996 20.7988 13.74 20.8926 13.6414C20.9199 13.6126 20.9434 13.5817 20.9629 13.5489C20.9688 13.5304 20.9766 13.5119 20.9863 13.4934C20.9902 13.4851 20.9961 13.479 21 13.4728C21.0273 13.407 21.041 13.3351 21.041 13.2591C21.041 13.1111 20.9844 12.9775 20.8906 12.8788Z" fill="#FFD02E"/>
</g>
<defs>
<clipPath id="clip0_677_5623">
<rect width="24" height="17" fill="white"/>
</clipPath>
</defs>
</svg>
