<svg width="24" height="14" viewBox="0 0 24 14" fill="none" xmlns="http://www.w3.org/2000/svg">
<path d="M12.5795 0.0925407C12.2651 0.244221 12.1513 0.645501 12.3246 0.975981C12.4763 1.27406 12.6119 1.30118 13.8097 1.30118H14.8993L15.5173 2.53166L16.1353 3.76766L14.7476 6.51566L13.3599 9.26918H11.8801C10.5035 9.26918 10.4003 9.26366 10.4003 9.1715C10.4003 8.80838 10.6333 6.3311 10.682 6.17942C10.785 5.8487 10.9856 5.49638 11.2621 5.14958C11.414 4.95998 11.5494 4.7267 11.571 4.62374C11.6523 4.18478 11.4301 3.71846 11.0451 3.51806C10.8229 3.4043 10.7742 3.4043 7.09378 3.4043C3.40786 3.4043 3.36466 3.4043 3.14242 3.51806C2.68162 3.75662 2.4757 4.3475 2.69242 4.83518C2.8117 5.11166 3.08818 5.35022 3.34834 5.39894C3.55426 5.44238 3.51634 5.4911 3.21826 5.58326C2.8225 5.70782 2.07994 6.1199 1.7113 6.4235C1.01242 7.00358 0.649298 7.58894 0.242738 8.78678C-0.0987816 9.79502 -0.0824616 10.2016 0.307778 10.635C0.611378 10.971 0.844418 11.0579 1.48402 11.0579H2.03146L2.0965 11.4481C2.29714 12.6189 3.2077 13.5513 4.38394 13.8006C5.86378 14.115 7.3813 13.1773 7.77154 11.703C7.81498 11.5403 7.8529 11.3291 7.8529 11.2314V11.0579H10.8505C12.7422 11.0579 13.9184 11.0363 14.043 11.0037C14.1567 10.9713 14.3247 10.8791 14.4169 10.803C14.5091 10.7217 15.219 9.71366 15.9887 8.5535C16.7639 7.39886 17.4035 6.45038 17.4195 6.45038C17.4519 6.45038 17.9075 7.35014 17.9562 7.51814C17.9886 7.61558 17.9507 7.68086 17.7719 7.83782C16.9967 8.53694 16.46 9.7187 16.4492 10.7485L16.4439 11.2254L16.6446 11.415C16.9211 11.6644 17.2463 11.6752 17.5172 11.4366L17.7015 11.2739L17.7666 11.5775C17.9564 12.5423 18.7748 13.426 19.7504 13.7241C20.222 13.8705 20.9646 13.8813 21.3927 13.7512C22.4118 13.4368 23.1759 12.64 23.4361 11.6265C23.6799 10.6672 23.3819 9.6155 22.6556 8.88926C22.3791 8.61278 22.3249 8.54222 22.4389 8.58038C22.6556 8.66726 22.9971 8.54798 23.1435 8.33654C23.3063 8.1143 23.3063 7.7675 23.1491 7.54526C22.9919 7.33382 22.2656 6.9707 21.6747 6.8243C21.2845 6.72686 21.1165 6.71054 20.5093 6.73766C20.1246 6.75398 19.7504 6.78638 19.6854 6.8027C19.5716 6.84062 19.5066 6.72686 18.6447 4.96526C17.745 3.1331 17.7234 3.0899 17.5662 3.0899C17.1272 3.0899 16.6556 2.7863 16.4442 2.36894C16.2275 1.92446 16.2762 1.27934 16.5579 0.970461C16.6338 0.889101 16.6338 0.856701 16.5471 0.693981C16.3736 0.357981 16.2383 0.206061 16.016 0.103102C15.8156 0.0109415 15.6421 0.00014019 14.276 0.00014019C12.986 0.000380516 12.7311 0.0167007 12.5795 0.0925407ZM21.2031 9.9359C21.6531 10.2016 21.8915 10.8193 21.729 11.3017C21.6205 11.6377 21.2737 11.9685 20.9322 12.0659C19.7017 12.4237 18.8833 10.8517 19.8697 10.0333C19.9835 9.93566 20.1515 9.83822 20.2383 9.8111C20.5203 9.72446 20.9322 9.7787 21.2031 9.9359ZM6.09682 11.2314C6.04258 11.5295 5.79322 11.8276 5.46802 11.9956C5.21866 12.1257 5.1265 12.1473 4.88266 12.1201C4.36234 12.0714 3.93418 11.7028 3.8149 11.2041L3.77698 11.0577H4.95322H6.13474L6.09682 11.2314Z" fill="#FFD02E"/>
<path d="M17.2841 0.92729C16.688 1.16585 16.5416 1.97873 17.024 2.42321C17.2246 2.61281 17.4197 2.65625 18.0483 2.65625H18.6392V1.76177V0.86753L18.032 0.87305C17.696 0.87305 17.36 0.90017 17.2841 0.92729Z" fill="#FFD02E"/>
</svg>
